<mxfile host="app.diagrams.net" modified="2022-10-05T14:42:19.507Z" agent="5.0 (X11)" etag="aIikEX30jiJsHC2Ov6js" version="20.4.0" type="github">
  <diagram id="R2lEEEUBdFMjLlhIrx00" name="Page-1">
    <mxGraphModel dx="1422" dy="760" grid="1" gridSize="10" guides="1" tooltips="1" connect="1" arrows="1" fold="1" page="1" pageScale="1" pageWidth="850" pageHeight="1100" math="0" shadow="0" extFonts="Permanent Marker^https://fonts.googleapis.com/css?family=Permanent+Marker">
      <root>
        <mxCell id="0" />
        <mxCell id="1" parent="0" />
        <mxCell id="aiYD3IHojJ0_3kRkCEtk-1" value="Actor" style="shape=umlActor;verticalLabelPosition=bottom;verticalAlign=top;html=1;outlineConnect=0;" vertex="1" parent="1">
          <mxGeometry x="100" y="80" width="30" height="60" as="geometry" />
        </mxCell>
        <mxCell id="aiYD3IHojJ0_3kRkCEtk-4" value="Actor" style="shape=umlActor;verticalLabelPosition=bottom;verticalAlign=top;html=1;outlineConnect=0;" vertex="1" parent="1">
          <mxGeometry x="210" y="40" width="30" height="60" as="geometry" />
        </mxCell>
        <mxCell id="aiYD3IHojJ0_3kRkCEtk-5" value="Actor" style="shape=umlActor;verticalLabelPosition=bottom;verticalAlign=top;html=1;outlineConnect=0;" vertex="1" parent="1">
          <mxGeometry x="350" y="40" width="30" height="60" as="geometry" />
        </mxCell>
        <mxCell id="aiYD3IHojJ0_3kRkCEtk-6" value="Actor" style="shape=umlActor;verticalLabelPosition=bottom;verticalAlign=top;html=1;outlineConnect=0;" vertex="1" parent="1">
          <mxGeometry x="500" y="40" width="30" height="60" as="geometry" />
        </mxCell>
        <mxCell id="aiYD3IHojJ0_3kRkCEtk-7" value="Actor" style="shape=umlActor;verticalLabelPosition=bottom;verticalAlign=top;html=1;outlineConnect=0;" vertex="1" parent="1">
          <mxGeometry x="640" y="80" width="30" height="60" as="geometry" />
        </mxCell>
        <mxCell id="aiYD3IHojJ0_3kRkCEtk-8" value="" style="shape=cylinder3;whiteSpace=wrap;html=1;boundedLbl=1;backgroundOutline=1;size=15;" vertex="1" parent="1">
          <mxGeometry x="85" y="280" width="60" height="80" as="geometry" />
        </mxCell>
        <mxCell id="aiYD3IHojJ0_3kRkCEtk-9" value="" style="shape=cylinder3;whiteSpace=wrap;html=1;boundedLbl=1;backgroundOutline=1;size=15;" vertex="1" parent="1">
          <mxGeometry x="195" y="320" width="60" height="80" as="geometry" />
        </mxCell>
        <mxCell id="aiYD3IHojJ0_3kRkCEtk-10" value="" style="shape=cylinder3;whiteSpace=wrap;html=1;boundedLbl=1;backgroundOutline=1;size=15;" vertex="1" parent="1">
          <mxGeometry x="335" y="320" width="60" height="80" as="geometry" />
        </mxCell>
        <mxCell id="aiYD3IHojJ0_3kRkCEtk-11" value="" style="shape=cylinder3;whiteSpace=wrap;html=1;boundedLbl=1;backgroundOutline=1;size=15;" vertex="1" parent="1">
          <mxGeometry x="485" y="320" width="60" height="80" as="geometry" />
        </mxCell>
        <mxCell id="aiYD3IHojJ0_3kRkCEtk-12" value="" style="shape=cylinder3;whiteSpace=wrap;html=1;boundedLbl=1;backgroundOutline=1;size=15;" vertex="1" parent="1">
          <mxGeometry x="625" y="280" width="60" height="80" as="geometry" />
        </mxCell>
        <mxCell id="aiYD3IHojJ0_3kRkCEtk-15" value="" style="endArrow=classic;startArrow=classic;html=1;rounded=0;" edge="1" parent="1" source="aiYD3IHojJ0_3kRkCEtk-8">
          <mxGeometry width="50" height="50" relative="1" as="geometry">
            <mxPoint x="400" y="330" as="sourcePoint" />
            <mxPoint x="115" y="160" as="targetPoint" />
          </mxGeometry>
        </mxCell>
        <mxCell id="aiYD3IHojJ0_3kRkCEtk-16" value="" style="endArrow=classic;startArrow=classic;html=1;rounded=0;" edge="1" parent="1" source="aiYD3IHojJ0_3kRkCEtk-9">
          <mxGeometry width="50" height="50" relative="1" as="geometry">
            <mxPoint x="400" y="330" as="sourcePoint" />
            <mxPoint x="140" y="160" as="targetPoint" />
          </mxGeometry>
        </mxCell>
        <mxCell id="aiYD3IHojJ0_3kRkCEtk-17" value="" style="endArrow=classic;startArrow=classic;html=1;rounded=0;" edge="1" parent="1" source="aiYD3IHojJ0_3kRkCEtk-10">
          <mxGeometry width="50" height="50" relative="1" as="geometry">
            <mxPoint x="400" y="330" as="sourcePoint" />
            <mxPoint x="140" y="140" as="targetPoint" />
          </mxGeometry>
        </mxCell>
        <mxCell id="aiYD3IHojJ0_3kRkCEtk-18" value="" style="endArrow=classic;startArrow=classic;html=1;rounded=0;exitX=0;exitY=0.5;exitDx=0;exitDy=0;exitPerimeter=0;" edge="1" parent="1" source="aiYD3IHojJ0_3kRkCEtk-11">
          <mxGeometry width="50" height="50" relative="1" as="geometry">
            <mxPoint x="400" y="330" as="sourcePoint" />
            <mxPoint x="140" y="120" as="targetPoint" />
          </mxGeometry>
        </mxCell>
        <mxCell id="aiYD3IHojJ0_3kRkCEtk-21" value="" style="endArrow=classic;startArrow=classic;html=1;rounded=0;entryX=0;entryY=0;entryDx=0;entryDy=15;entryPerimeter=0;" edge="1" parent="1" target="aiYD3IHojJ0_3kRkCEtk-12">
          <mxGeometry width="50" height="50" relative="1" as="geometry">
            <mxPoint x="140" y="110" as="sourcePoint" />
            <mxPoint x="450" y="280" as="targetPoint" />
          </mxGeometry>
        </mxCell>
        <mxCell id="aiYD3IHojJ0_3kRkCEtk-22" value="" style="endArrow=classic;startArrow=classic;html=1;rounded=0;exitX=0.855;exitY=0;exitDx=0;exitDy=4.35;exitPerimeter=0;" edge="1" parent="1" source="aiYD3IHojJ0_3kRkCEtk-8">
          <mxGeometry width="50" height="50" relative="1" as="geometry">
            <mxPoint x="400" y="330" as="sourcePoint" />
            <mxPoint x="200" y="110" as="targetPoint" />
          </mxGeometry>
        </mxCell>
        <mxCell id="aiYD3IHojJ0_3kRkCEtk-23" value="" style="endArrow=classic;startArrow=classic;html=1;rounded=0;exitX=0.5;exitY=0;exitDx=0;exitDy=0;exitPerimeter=0;" edge="1" parent="1" source="aiYD3IHojJ0_3kRkCEtk-9">
          <mxGeometry width="50" height="50" relative="1" as="geometry">
            <mxPoint x="400" y="330" as="sourcePoint" />
            <mxPoint x="220" y="120" as="targetPoint" />
          </mxGeometry>
        </mxCell>
        <mxCell id="aiYD3IHojJ0_3kRkCEtk-24" value="" style="endArrow=classic;startArrow=classic;html=1;rounded=0;exitX=0.145;exitY=0;exitDx=0;exitDy=4.35;exitPerimeter=0;" edge="1" parent="1" source="aiYD3IHojJ0_3kRkCEtk-10">
          <mxGeometry width="50" height="50" relative="1" as="geometry">
            <mxPoint x="400" y="330" as="sourcePoint" />
            <mxPoint x="240" y="120" as="targetPoint" />
          </mxGeometry>
        </mxCell>
        <mxCell id="aiYD3IHojJ0_3kRkCEtk-25" value="" style="endArrow=classic;startArrow=classic;html=1;rounded=0;entryX=0;entryY=0;entryDx=0;entryDy=15;entryPerimeter=0;" edge="1" parent="1" target="aiYD3IHojJ0_3kRkCEtk-11">
          <mxGeometry width="50" height="50" relative="1" as="geometry">
            <mxPoint x="250" y="110" as="sourcePoint" />
            <mxPoint x="450" y="280" as="targetPoint" />
          </mxGeometry>
        </mxCell>
        <mxCell id="aiYD3IHojJ0_3kRkCEtk-26" value="" style="endArrow=classic;startArrow=classic;html=1;rounded=0;entryX=0.145;entryY=0;entryDx=0;entryDy=4.35;entryPerimeter=0;" edge="1" parent="1" target="aiYD3IHojJ0_3kRkCEtk-12">
          <mxGeometry width="50" height="50" relative="1" as="geometry">
            <mxPoint x="250" y="90" as="sourcePoint" />
            <mxPoint x="450" y="260" as="targetPoint" />
          </mxGeometry>
        </mxCell>
        <mxCell id="aiYD3IHojJ0_3kRkCEtk-27" value="" style="endArrow=classic;startArrow=classic;html=1;rounded=0;exitX=1;exitY=0;exitDx=0;exitDy=15;exitPerimeter=0;" edge="1" parent="1" source="aiYD3IHojJ0_3kRkCEtk-8">
          <mxGeometry width="50" height="50" relative="1" as="geometry">
            <mxPoint x="400" y="310" as="sourcePoint" />
            <mxPoint x="340" y="70" as="targetPoint" />
          </mxGeometry>
        </mxCell>
        <mxCell id="aiYD3IHojJ0_3kRkCEtk-28" value="" style="endArrow=classic;startArrow=classic;html=1;rounded=0;exitX=0.667;exitY=-0.05;exitDx=0;exitDy=0;exitPerimeter=0;" edge="1" parent="1" source="aiYD3IHojJ0_3kRkCEtk-9">
          <mxGeometry width="50" height="50" relative="1" as="geometry">
            <mxPoint x="400" y="310" as="sourcePoint" />
            <mxPoint x="340" y="100" as="targetPoint" />
          </mxGeometry>
        </mxCell>
        <mxCell id="aiYD3IHojJ0_3kRkCEtk-29" value="" style="endArrow=classic;startArrow=classic;html=1;rounded=0;exitX=0.5;exitY=0;exitDx=0;exitDy=0;exitPerimeter=0;" edge="1" parent="1" source="aiYD3IHojJ0_3kRkCEtk-10">
          <mxGeometry width="50" height="50" relative="1" as="geometry">
            <mxPoint x="400" y="310" as="sourcePoint" />
            <mxPoint x="360" y="130" as="targetPoint" />
          </mxGeometry>
        </mxCell>
        <mxCell id="aiYD3IHojJ0_3kRkCEtk-30" value="" style="endArrow=classic;startArrow=classic;html=1;rounded=0;exitX=0.145;exitY=0;exitDx=0;exitDy=4.35;exitPerimeter=0;" edge="1" parent="1" source="aiYD3IHojJ0_3kRkCEtk-11">
          <mxGeometry width="50" height="50" relative="1" as="geometry">
            <mxPoint x="400" y="310" as="sourcePoint" />
            <mxPoint x="380" y="130" as="targetPoint" />
          </mxGeometry>
        </mxCell>
        <mxCell id="aiYD3IHojJ0_3kRkCEtk-31" value="" style="endArrow=classic;startArrow=classic;html=1;rounded=0;exitX=0.25;exitY=-0.025;exitDx=0;exitDy=0;exitPerimeter=0;" edge="1" parent="1" source="aiYD3IHojJ0_3kRkCEtk-12">
          <mxGeometry width="50" height="50" relative="1" as="geometry">
            <mxPoint x="400" y="310" as="sourcePoint" />
            <mxPoint x="390" y="110" as="targetPoint" />
          </mxGeometry>
        </mxCell>
        <mxCell id="aiYD3IHojJ0_3kRkCEtk-32" value="" style="endArrow=classic;startArrow=classic;html=1;rounded=0;exitX=1;exitY=0;exitDx=0;exitDy=27.5;exitPerimeter=0;" edge="1" parent="1" source="aiYD3IHojJ0_3kRkCEtk-8">
          <mxGeometry width="50" height="50" relative="1" as="geometry">
            <mxPoint x="400" y="310" as="sourcePoint" />
            <mxPoint x="490" y="70" as="targetPoint" />
          </mxGeometry>
        </mxCell>
        <mxCell id="aiYD3IHojJ0_3kRkCEtk-33" value="" style="endArrow=classic;startArrow=classic;html=1;rounded=0;exitX=0.855;exitY=0;exitDx=0;exitDy=4.35;exitPerimeter=0;" edge="1" parent="1" source="aiYD3IHojJ0_3kRkCEtk-9">
          <mxGeometry width="50" height="50" relative="1" as="geometry">
            <mxPoint x="400" y="310" as="sourcePoint" />
            <mxPoint x="490" y="90" as="targetPoint" />
          </mxGeometry>
        </mxCell>
        <mxCell id="aiYD3IHojJ0_3kRkCEtk-34" value="" style="endArrow=classic;startArrow=classic;html=1;rounded=0;exitX=0.7;exitY=0.038;exitDx=0;exitDy=0;exitPerimeter=0;" edge="1" parent="1" source="aiYD3IHojJ0_3kRkCEtk-10">
          <mxGeometry width="50" height="50" relative="1" as="geometry">
            <mxPoint x="400" y="310" as="sourcePoint" />
            <mxPoint x="490" y="120" as="targetPoint" />
          </mxGeometry>
        </mxCell>
        <mxCell id="aiYD3IHojJ0_3kRkCEtk-35" value="" style="endArrow=classic;startArrow=classic;html=1;rounded=0;exitX=0.5;exitY=0;exitDx=0;exitDy=0;exitPerimeter=0;" edge="1" parent="1" source="aiYD3IHojJ0_3kRkCEtk-11">
          <mxGeometry width="50" height="50" relative="1" as="geometry">
            <mxPoint x="400" y="310" as="sourcePoint" />
            <mxPoint x="515" y="130" as="targetPoint" />
          </mxGeometry>
        </mxCell>
        <mxCell id="aiYD3IHojJ0_3kRkCEtk-36" value="" style="endArrow=classic;startArrow=classic;html=1;rounded=0;entryX=0.367;entryY=-0.037;entryDx=0;entryDy=0;entryPerimeter=0;" edge="1" parent="1" target="aiYD3IHojJ0_3kRkCEtk-12">
          <mxGeometry width="50" height="50" relative="1" as="geometry">
            <mxPoint x="540" y="110" as="sourcePoint" />
            <mxPoint x="450" y="260" as="targetPoint" />
          </mxGeometry>
        </mxCell>
        <mxCell id="aiYD3IHojJ0_3kRkCEtk-37" value="" style="endArrow=classic;startArrow=classic;html=1;rounded=0;exitX=1;exitY=0.5;exitDx=0;exitDy=0;exitPerimeter=0;" edge="1" parent="1" source="aiYD3IHojJ0_3kRkCEtk-8">
          <mxGeometry width="50" height="50" relative="1" as="geometry">
            <mxPoint x="400" y="310" as="sourcePoint" />
            <mxPoint x="630" y="110" as="targetPoint" />
          </mxGeometry>
        </mxCell>
        <mxCell id="aiYD3IHojJ0_3kRkCEtk-38" value="" style="endArrow=classic;startArrow=classic;html=1;rounded=0;exitX=1;exitY=0;exitDx=0;exitDy=15;exitPerimeter=0;" edge="1" parent="1" source="aiYD3IHojJ0_3kRkCEtk-9">
          <mxGeometry width="50" height="50" relative="1" as="geometry">
            <mxPoint x="400" y="310" as="sourcePoint" />
            <mxPoint x="630" y="130" as="targetPoint" />
          </mxGeometry>
        </mxCell>
        <mxCell id="aiYD3IHojJ0_3kRkCEtk-39" value="" style="endArrow=classic;startArrow=classic;html=1;rounded=0;exitX=1;exitY=0;exitDx=0;exitDy=15;exitPerimeter=0;" edge="1" parent="1" source="aiYD3IHojJ0_3kRkCEtk-10">
          <mxGeometry width="50" height="50" relative="1" as="geometry">
            <mxPoint x="400" y="310" as="sourcePoint" />
            <mxPoint x="630" y="150" as="targetPoint" />
          </mxGeometry>
        </mxCell>
        <mxCell id="aiYD3IHojJ0_3kRkCEtk-40" value="" style="endArrow=classic;startArrow=classic;html=1;rounded=0;exitX=0.855;exitY=0;exitDx=0;exitDy=4.35;exitPerimeter=0;" edge="1" parent="1" source="aiYD3IHojJ0_3kRkCEtk-11">
          <mxGeometry width="50" height="50" relative="1" as="geometry">
            <mxPoint x="400" y="310" as="sourcePoint" />
            <mxPoint x="630" y="170" as="targetPoint" />
          </mxGeometry>
        </mxCell>
        <mxCell id="aiYD3IHojJ0_3kRkCEtk-41" value="" style="endArrow=classic;startArrow=classic;html=1;rounded=0;" edge="1" parent="1" source="aiYD3IHojJ0_3kRkCEtk-12">
          <mxGeometry width="50" height="50" relative="1" as="geometry">
            <mxPoint x="400" y="310" as="sourcePoint" />
            <mxPoint x="655" y="170" as="targetPoint" />
          </mxGeometry>
        </mxCell>
        <mxCell id="aiYD3IHojJ0_3kRkCEtk-42" value="&lt;h1&gt;Decentralized Landscape&lt;br&gt;&lt;/h1&gt;&lt;p style=&quot;font-size: 13px;&quot; align=&quot;justify&quot;&gt;&lt;font style=&quot;font-size: 13px;&quot;&gt;Without a centralized hub to route connections, the status quo is a spaghetti bowl of point-to-point connections between users and datasets. In any given system there are &lt;i&gt;N x M x 2 &lt;/i&gt;unidirectional relationships where &lt;i&gt;N &lt;/i&gt;is the number of users and &lt;i&gt;M &lt;/i&gt;is the number of datasets. Data set managers must push notifications to users about updates on a user-by-user basis and users must access databases on a dataset-by-dataset basis. &lt;br&gt;&lt;/font&gt;&lt;/p&gt;&lt;p style=&quot;font-size: 13px;&quot; align=&quot;justify&quot;&gt;&lt;font style=&quot;font-size: 13px;&quot;&gt;The functioning of this system assumes complete visibility -- all users are aware of all datasets and vice versa. In reality, only partial visibility is ever possible and some valuable connections are never formed.&lt;/font&gt;&lt;br&gt;&lt;/p&gt;" style="text;html=1;strokeColor=#d6b656;fillColor=#fff2cc;spacing=5;spacingTop=-20;whiteSpace=wrap;overflow=hidden;rounded=0;" vertex="1" parent="1">
          <mxGeometry x="80" y="430" width="600" height="190" as="geometry" />
        </mxCell>
      </root>
    </mxGraphModel>
  </diagram>
</mxfile>
